<?xml version="1.0" encoding="UTF-8" standalone="no"?>
<!DOCTYPE svg PUBLIC "-//W3C//DTD SVG 1.1//EN"
 "http://www.w3.org/Graphics/SVG/1.1/DTD/svg11.dtd">
<!-- Generated by graphviz version 2.44.1 (20200629.0846)
 -->
<!-- Pages: 1 -->
<svg width="1955pt" height="332pt"
 viewBox="0.00 0.00 1955.22 332.00" xmlns="http://www.w3.org/2000/svg" xmlns:xlink="http://www.w3.org/1999/xlink">
<g id="graph0" class="graph" transform="scale(1 1) rotate(0) translate(4 328)">
<polygon fill="white" stroke="transparent" points="-4,4 -4,-328 1951.22,-328 1951.22,4 -4,4"/>
<!-- [root] local.s3_origin_id -->
<g id="node1" class="node">
<title>[root] local.s3_origin_id</title>
<polygon fill="none" stroke="black" points="1698.22,-180 1589.22,-180 1589.22,-144 1704.22,-144 1704.22,-174 1698.22,-180"/>
<polyline fill="none" stroke="black" points="1698.22,-180 1698.22,-174 "/>
<polyline fill="none" stroke="black" points="1704.22,-174 1698.22,-174 "/>
<text text-anchor="middle" x="1646.72" y="-158.3" font-family="Times,serif" font-size="14.00">local.s3_origin_id</text>
</g>
<!-- [root] module.aws_cloudfront_distribution.aws_cloudfront_distribution.s3_distribution -->
<g id="node2" class="node">
<title>[root] module.aws_cloudfront_distribution.aws_cloudfront_distribution.s3_distribution</title>
<polygon fill="none" stroke="black" points="501.72,-180 45.72,-180 45.72,-144 501.72,-144 501.72,-180"/>
<text text-anchor="middle" x="273.72" y="-158.3" font-family="Times,serif" font-size="14.00">module.aws_cloudfront_distribution.aws_cloudfront_distribution.s3_distribution</text>
</g>
<!-- [root] module.aws_cloudfront_distribution.provider.aws -->
<g id="node4" class="node">
<title>[root] module.aws_cloudfront_distribution.provider.aws</title>
<polygon fill="none" stroke="black" points="264.72,-108 -0.22,-90 264.72,-72 529.65,-90 264.72,-108"/>
<text text-anchor="middle" x="264.72" y="-86.3" font-family="Times,serif" font-size="14.00">module.aws_cloudfront_distribution.provider.aws</text>
</g>
<!-- [root] module.aws_cloudfront_distribution.aws_cloudfront_distribution.s3_distribution&#45;&gt;[root] module.aws_cloudfront_distribution.provider.aws -->
<g id="edge8" class="edge">
<title>[root] module.aws_cloudfront_distribution.aws_cloudfront_distribution.s3_distribution&#45;&gt;[root] module.aws_cloudfront_distribution.provider.aws</title>
<path fill="none" stroke="black" d="M271.49,-143.7C270.5,-135.98 269.31,-126.71 268.2,-118.11"/>
<polygon fill="black" stroke="black" points="271.66,-117.58 266.92,-108.1 264.72,-118.47 271.66,-117.58"/>
</g>
<!-- [root] module.aws_cloudfront_distribution.var.bucket_name -->
<g id="node5" class="node">
<title>[root] module.aws_cloudfront_distribution.var.bucket_name</title>
<polygon fill="none" stroke="black" points="852.22,-108 547.22,-108 547.22,-72 858.22,-72 858.22,-102 852.22,-108"/>
<polyline fill="none" stroke="black" points="852.22,-108 852.22,-102 "/>
<polyline fill="none" stroke="black" points="858.22,-102 852.22,-102 "/>
<text text-anchor="middle" x="702.72" y="-86.3" font-family="Times,serif" font-size="14.00">module.aws_cloudfront_distribution.var.bucket_name</text>
</g>
<!-- [root] module.aws_cloudfront_distribution.aws_cloudfront_distribution.s3_distribution&#45;&gt;[root] module.aws_cloudfront_distribution.var.bucket_name -->
<g id="edge9" class="edge">
<title>[root] module.aws_cloudfront_distribution.aws_cloudfront_distribution.s3_distribution&#45;&gt;[root] module.aws_cloudfront_distribution.var.bucket_name</title>
<path fill="none" stroke="black" d="M378.11,-143.97C441.69,-133.59 522.97,-120.33 588.3,-109.67"/>
<polygon fill="black" stroke="black" points="588.92,-113.11 598.22,-108.05 587.79,-106.21 588.92,-113.11"/>
</g>
<!-- [root] module.aws_cloudfront_distribution.var.stack -->
<g id="node6" class="node">
<title>[root] module.aws_cloudfront_distribution.var.stack</title>
<polygon fill="none" stroke="black" points="1136.72,-108 876.72,-108 876.72,-72 1142.72,-72 1142.72,-102 1136.72,-108"/>
<polyline fill="none" stroke="black" points="1136.72,-108 1136.72,-102 "/>
<polyline fill="none" stroke="black" points="1142.72,-102 1136.72,-102 "/>
<text text-anchor="middle" x="1009.72" y="-86.3" font-family="Times,serif" font-size="14.00">module.aws_cloudfront_distribution.var.stack</text>
</g>
<!-- [root] module.aws_cloudfront_distribution.aws_cloudfront_distribution.s3_distribution&#45;&gt;[root] module.aws_cloudfront_distribution.var.stack -->
<g id="edge10" class="edge">
<title>[root] module.aws_cloudfront_distribution.aws_cloudfront_distribution.s3_distribution&#45;&gt;[root] module.aws_cloudfront_distribution.var.stack</title>
<path fill="none" stroke="black" d="M480.72,-143.99C591.9,-134.49 731.59,-121.97 866.41,-108.01"/>
<polygon fill="black" stroke="black" points="866.94,-111.48 876.52,-106.96 866.22,-104.52 866.94,-111.48"/>
</g>
<!-- [root] module.aws_cloudfront_distribution.output.domain_name -->
<g id="node3" class="node">
<title>[root] module.aws_cloudfront_distribution.output.domain_name</title>
<polygon fill="none" stroke="black" points="849.22,-180 520.22,-180 520.22,-144 855.22,-144 855.22,-174 849.22,-180"/>
<polyline fill="none" stroke="black" points="849.22,-180 849.22,-174 "/>
<polyline fill="none" stroke="black" points="855.22,-174 849.22,-174 "/>
<text text-anchor="middle" x="687.72" y="-158.3" font-family="Times,serif" font-size="14.00">module.aws_cloudfront_distribution.output.domain_name</text>
</g>
<!-- [root] var.bucket_name -->
<g id="node14" class="node">
<title>[root] var.bucket_name</title>
<polygon fill="none" stroke="black" points="1084.72,-36 980.72,-36 980.72,0 1090.72,0 1090.72,-30 1084.72,-36"/>
<polyline fill="none" stroke="black" points="1084.72,-36 1084.72,-30 "/>
<polyline fill="none" stroke="black" points="1090.72,-30 1084.72,-30 "/>
<text text-anchor="middle" x="1035.72" y="-14.3" font-family="Times,serif" font-size="14.00">var.bucket_name</text>
</g>
<!-- [root] module.aws_cloudfront_distribution.var.bucket_name&#45;&gt;[root] var.bucket_name -->
<g id="edge12" class="edge">
<title>[root] module.aws_cloudfront_distribution.var.bucket_name&#45;&gt;[root] var.bucket_name</title>
<path fill="none" stroke="black" d="M783.75,-71.97C841.09,-59.91 916.97,-43.96 970.42,-32.73"/>
<polygon fill="black" stroke="black" points="971.4,-36.1 980.47,-30.61 969.96,-29.25 971.4,-36.1"/>
</g>
<!-- [root] var.stack -->
<g id="node15" class="node">
<title>[root] var.stack</title>
<polygon fill="none" stroke="black" points="1268.22,-36 1209.22,-36 1209.22,0 1274.22,0 1274.22,-30 1268.22,-36"/>
<polyline fill="none" stroke="black" points="1268.22,-36 1268.22,-30 "/>
<polyline fill="none" stroke="black" points="1274.22,-30 1268.22,-30 "/>
<text text-anchor="middle" x="1241.72" y="-14.3" font-family="Times,serif" font-size="14.00">var.stack</text>
</g>
<!-- [root] module.aws_cloudfront_distribution.var.stack&#45;&gt;[root] var.stack -->
<g id="edge13" class="edge">
<title>[root] module.aws_cloudfront_distribution.var.stack&#45;&gt;[root] var.stack</title>
<path fill="none" stroke="black" d="M1066.17,-71.97C1107.3,-59.56 1162.12,-43.02 1199.49,-31.74"/>
<polygon fill="black" stroke="black" points="1200.5,-35.09 1209.06,-28.85 1198.48,-28.39 1200.5,-35.09"/>
</g>
<!-- [root] module.s3_bucket.aws_s3_bucket.s3b -->
<g id="node7" class="node">
<title>[root] module.s3_bucket.aws_s3_bucket.s3b</title>
<polygon fill="none" stroke="black" points="1947.22,-180 1722.22,-180 1722.22,-144 1947.22,-144 1947.22,-180"/>
<text text-anchor="middle" x="1834.72" y="-158.3" font-family="Times,serif" font-size="14.00">module.s3_bucket.aws_s3_bucket.s3b</text>
</g>
<!-- [root] module.s3_bucket.provider.aws -->
<g id="node11" class="node">
<title>[root] module.s3_bucket.provider.aws</title>
<polygon fill="none" stroke="black" points="1566.72,-108 1391.94,-90 1566.72,-72 1741.5,-90 1566.72,-108"/>
<text text-anchor="middle" x="1566.72" y="-86.3" font-family="Times,serif" font-size="14.00">module.s3_bucket.provider.aws</text>
</g>
<!-- [root] module.s3_bucket.aws_s3_bucket.s3b&#45;&gt;[root] module.s3_bucket.provider.aws -->
<g id="edge14" class="edge">
<title>[root] module.s3_bucket.aws_s3_bucket.s3b&#45;&gt;[root] module.s3_bucket.provider.aws</title>
<path fill="none" stroke="black" d="M1769.5,-143.97C1724.8,-132.29 1666.08,-116.95 1623.34,-105.79"/>
<polygon fill="black" stroke="black" points="1624.22,-102.4 1613.66,-103.26 1622.45,-109.17 1624.22,-102.4"/>
</g>
<!-- [root] module.s3_bucket.var.bucket_name -->
<g id="node12" class="node">
<title>[root] module.s3_bucket.var.bucket_name</title>
<polygon fill="none" stroke="black" points="1368.22,-108 1161.22,-108 1161.22,-72 1374.22,-72 1374.22,-102 1368.22,-108"/>
<polyline fill="none" stroke="black" points="1368.22,-108 1368.22,-102 "/>
<polyline fill="none" stroke="black" points="1374.22,-102 1368.22,-102 "/>
<text text-anchor="middle" x="1267.72" y="-86.3" font-family="Times,serif" font-size="14.00">module.s3_bucket.var.bucket_name</text>
</g>
<!-- [root] module.s3_bucket.aws_s3_bucket.s3b&#45;&gt;[root] module.s3_bucket.var.bucket_name -->
<g id="edge15" class="edge">
<title>[root] module.s3_bucket.aws_s3_bucket.s3b&#45;&gt;[root] module.s3_bucket.var.bucket_name</title>
<path fill="none" stroke="black" d="M1722.02,-145.05C1719.22,-144.69 1716.45,-144.34 1713.72,-144 1570.17,-126.11 1531.23,-126.78 1384.78,-108.24"/>
<polygon fill="black" stroke="black" points="1384.88,-104.72 1374.52,-106.93 1383.99,-111.67 1384.88,-104.72"/>
</g>
<!-- [root] module.s3_bucket.var.stack -->
<g id="node13" class="node">
<title>[root] module.s3_bucket.var.stack</title>
<polygon fill="none" stroke="black" points="1921.72,-108 1759.72,-108 1759.72,-72 1927.72,-72 1927.72,-102 1921.72,-108"/>
<polyline fill="none" stroke="black" points="1921.72,-108 1921.72,-102 "/>
<polyline fill="none" stroke="black" points="1927.72,-102 1921.72,-102 "/>
<text text-anchor="middle" x="1843.72" y="-86.3" font-family="Times,serif" font-size="14.00">module.s3_bucket.var.stack</text>
</g>
<!-- [root] module.s3_bucket.aws_s3_bucket.s3b&#45;&gt;[root] module.s3_bucket.var.stack -->
<g id="edge16" class="edge">
<title>[root] module.s3_bucket.aws_s3_bucket.s3b&#45;&gt;[root] module.s3_bucket.var.stack</title>
<path fill="none" stroke="black" d="M1836.94,-143.7C1837.93,-135.98 1839.13,-126.71 1840.23,-118.11"/>
<polygon fill="black" stroke="black" points="1843.71,-118.47 1841.52,-108.1 1836.77,-117.58 1843.71,-118.47"/>
</g>
<!-- [root] module.s3_bucket.output.bucket_arn -->
<g id="node8" class="node">
<title>[root] module.s3_bucket.output.bucket_arn</title>
<polygon fill="none" stroke="black" points="1085.72,-180 873.72,-180 873.72,-144 1091.72,-144 1091.72,-174 1085.72,-180"/>
<polyline fill="none" stroke="black" points="1085.72,-180 1085.72,-174 "/>
<polyline fill="none" stroke="black" points="1091.72,-174 1085.72,-174 "/>
<text text-anchor="middle" x="982.72" y="-158.3" font-family="Times,serif" font-size="14.00">module.s3_bucket.output.bucket_arn</text>
</g>
<!-- [root] module.s3_bucket.output.bucket_id -->
<g id="node9" class="node">
<title>[root] module.s3_bucket.output.bucket_id</title>
<polygon fill="none" stroke="black" points="1315.72,-180 1109.72,-180 1109.72,-144 1321.72,-144 1321.72,-174 1315.72,-180"/>
<polyline fill="none" stroke="black" points="1315.72,-180 1315.72,-174 "/>
<polyline fill="none" stroke="black" points="1321.72,-174 1315.72,-174 "/>
<text text-anchor="middle" x="1215.72" y="-158.3" font-family="Times,serif" font-size="14.00">module.s3_bucket.output.bucket_id</text>
</g>
<!-- [root] module.s3_bucket.output.bucket_name -->
<g id="node10" class="node">
<title>[root] module.s3_bucket.output.bucket_name</title>
<polygon fill="none" stroke="black" points="1565.22,-180 1340.22,-180 1340.22,-144 1571.22,-144 1571.22,-174 1565.22,-180"/>
<polyline fill="none" stroke="black" points="1565.22,-180 1565.22,-174 "/>
<polyline fill="none" stroke="black" points="1571.22,-174 1565.22,-174 "/>
<text text-anchor="middle" x="1455.72" y="-158.3" font-family="Times,serif" font-size="14.00">module.s3_bucket.output.bucket_name</text>
</g>
<!-- [root] module.s3_bucket.var.bucket_name&#45;&gt;[root] var.bucket_name -->
<g id="edge18" class="edge">
<title>[root] module.s3_bucket.var.bucket_name&#45;&gt;[root] var.bucket_name</title>
<path fill="none" stroke="black" d="M1211.26,-71.97C1177.79,-61.87 1135.25,-49.03 1100.43,-38.52"/>
<polygon fill="black" stroke="black" points="1101.41,-35.16 1090.82,-35.63 1099.39,-41.87 1101.41,-35.16"/>
</g>
<!-- [root] module.s3_bucket.var.stack&#45;&gt;[root] var.stack -->
<g id="edge19" class="edge">
<title>[root] module.s3_bucket.var.stack&#45;&gt;[root] var.stack</title>
<path fill="none" stroke="black" d="M1759.62,-73.33C1756.61,-72.86 1753.64,-72.42 1750.72,-72 1578.52,-47.33 1371.99,-29.4 1284.36,-22.32"/>
<polygon fill="black" stroke="black" points="1284.53,-18.82 1274.28,-21.51 1283.97,-25.8 1284.53,-18.82"/>
</g>
<!-- [root] meta.count&#45;boundary (EachMode fixup) -->
<g id="node16" class="node">
<title>[root] meta.count&#45;boundary (EachMode fixup)</title>
<ellipse fill="none" stroke="black" cx="1215.72" cy="-234" rx="176.27" ry="18"/>
<text text-anchor="middle" x="1215.72" y="-230.3" font-family="Times,serif" font-size="14.00">[root] meta.count&#45;boundary (EachMode fixup)</text>
</g>
<!-- [root] meta.count&#45;boundary (EachMode fixup)&#45;&gt;[root] local.s3_origin_id -->
<g id="edge1" class="edge">
<title>[root] meta.count&#45;boundary (EachMode fixup)&#45;&gt;[root] local.s3_origin_id</title>
<path fill="none" stroke="black" d="M1326.86,-220.03C1396.9,-211.1 1489.35,-197.95 1579.38,-180.16"/>
<polygon fill="black" stroke="black" points="1580.09,-183.59 1589.21,-178.2 1578.72,-176.73 1580.09,-183.59"/>
</g>
<!-- [root] meta.count&#45;boundary (EachMode fixup)&#45;&gt;[root] module.aws_cloudfront_distribution.aws_cloudfront_distribution.s3_distribution -->
<g id="edge2" class="edge">
<title>[root] meta.count&#45;boundary (EachMode fixup)&#45;&gt;[root] module.aws_cloudfront_distribution.aws_cloudfront_distribution.s3_distribution</title>
<path fill="none" stroke="black" d="M1077.99,-222.77C929.71,-211.75 691.06,-194.01 512.17,-180.72"/>
<polygon fill="black" stroke="black" points="512.32,-177.22 502.09,-179.97 511.8,-184.2 512.32,-177.22"/>
</g>
<!-- [root] meta.count&#45;boundary (EachMode fixup)&#45;&gt;[root] module.aws_cloudfront_distribution.output.domain_name -->
<g id="edge3" class="edge">
<title>[root] meta.count&#45;boundary (EachMode fixup)&#45;&gt;[root] module.aws_cloudfront_distribution.output.domain_name</title>
<path fill="none" stroke="black" d="M1112.97,-219.38C1031.29,-208.55 916.21,-193.29 826.36,-181.38"/>
<polygon fill="black" stroke="black" points="826.74,-177.9 816.36,-180.06 825.82,-184.84 826.74,-177.9"/>
</g>
<!-- [root] meta.count&#45;boundary (EachMode fixup)&#45;&gt;[root] module.s3_bucket.aws_s3_bucket.s3b -->
<g id="edge4" class="edge">
<title>[root] meta.count&#45;boundary (EachMode fixup)&#45;&gt;[root] module.s3_bucket.aws_s3_bucket.s3b</title>
<path fill="none" stroke="black" d="M1338.64,-221.08C1437.05,-211.26 1578.88,-196.5 1712.04,-180.19"/>
<polygon fill="black" stroke="black" points="1712.52,-183.65 1722.02,-178.96 1711.67,-176.71 1712.52,-183.65"/>
</g>
<!-- [root] meta.count&#45;boundary (EachMode fixup)&#45;&gt;[root] module.s3_bucket.output.bucket_arn -->
<g id="edge5" class="edge">
<title>[root] meta.count&#45;boundary (EachMode fixup)&#45;&gt;[root] module.s3_bucket.output.bucket_arn</title>
<path fill="none" stroke="black" d="M1161.97,-216.85C1128.43,-206.78 1085.01,-193.73 1049.3,-183"/>
<polygon fill="black" stroke="black" points="1050.03,-179.57 1039.44,-180.04 1048.01,-186.27 1050.03,-179.57"/>
</g>
<!-- [root] meta.count&#45;boundary (EachMode fixup)&#45;&gt;[root] module.s3_bucket.output.bucket_id -->
<g id="edge6" class="edge">
<title>[root] meta.count&#45;boundary (EachMode fixup)&#45;&gt;[root] module.s3_bucket.output.bucket_id</title>
<path fill="none" stroke="black" d="M1215.72,-215.7C1215.72,-207.98 1215.72,-198.71 1215.72,-190.11"/>
<polygon fill="black" stroke="black" points="1219.22,-190.1 1215.72,-180.1 1212.22,-190.1 1219.22,-190.1"/>
</g>
<!-- [root] meta.count&#45;boundary (EachMode fixup)&#45;&gt;[root] module.s3_bucket.output.bucket_name -->
<g id="edge7" class="edge">
<title>[root] meta.count&#45;boundary (EachMode fixup)&#45;&gt;[root] module.s3_bucket.output.bucket_name</title>
<path fill="none" stroke="black" d="M1271.08,-216.85C1305.77,-206.73 1350.74,-193.62 1387.61,-182.87"/>
<polygon fill="black" stroke="black" points="1388.67,-186.2 1397.29,-180.04 1386.71,-179.48 1388.67,-186.2"/>
</g>
<!-- [root] module.aws_cloudfront_distribution.provider.aws (close) -->
<g id="node17" class="node">
<title>[root] module.aws_cloudfront_distribution.provider.aws (close)</title>
<ellipse fill="none" stroke="black" cx="529.72" cy="-234" rx="235.86" ry="18"/>
<text text-anchor="middle" x="529.72" y="-230.3" font-family="Times,serif" font-size="14.00">[root] module.aws_cloudfront_distribution.provider.aws (close)</text>
</g>
<!-- [root] module.aws_cloudfront_distribution.provider.aws (close)&#45;&gt;[root] module.aws_cloudfront_distribution.aws_cloudfront_distribution.s3_distribution -->
<g id="edge11" class="edge">
<title>[root] module.aws_cloudfront_distribution.provider.aws (close)&#45;&gt;[root] module.aws_cloudfront_distribution.aws_cloudfront_distribution.s3_distribution</title>
<path fill="none" stroke="black" d="M469.7,-216.59C432.64,-206.46 384.87,-193.39 345.78,-182.7"/>
<polygon fill="black" stroke="black" points="346.6,-179.3 336.04,-180.04 344.76,-186.05 346.6,-179.3"/>
</g>
<!-- [root] module.s3_bucket.provider.aws (close) -->
<g id="node18" class="node">
<title>[root] module.s3_bucket.provider.aws (close)</title>
<ellipse fill="none" stroke="black" cx="1707.72" cy="-234" rx="172.47" ry="18"/>
<text text-anchor="middle" x="1707.72" y="-230.3" font-family="Times,serif" font-size="14.00">[root] module.s3_bucket.provider.aws (close)</text>
</g>
<!-- [root] module.s3_bucket.provider.aws (close)&#45;&gt;[root] module.s3_bucket.aws_s3_bucket.s3b -->
<g id="edge17" class="edge">
<title>[root] module.s3_bucket.provider.aws (close)&#45;&gt;[root] module.s3_bucket.aws_s3_bucket.s3b</title>
<path fill="none" stroke="black" d="M1738.14,-216.23C1755.09,-206.89 1776.4,-195.14 1794.69,-185.06"/>
<polygon fill="black" stroke="black" points="1796.6,-188.01 1803.66,-180.12 1793.22,-181.88 1796.6,-188.01"/>
</g>
<!-- [root] root -->
<g id="node19" class="node">
<title>[root] root</title>
<ellipse fill="none" stroke="black" cx="1215.72" cy="-306" rx="47.39" ry="18"/>
<text text-anchor="middle" x="1215.72" y="-302.3" font-family="Times,serif" font-size="14.00">[root] root</text>
</g>
<!-- [root] root&#45;&gt;[root] meta.count&#45;boundary (EachMode fixup) -->
<g id="edge20" class="edge">
<title>[root] root&#45;&gt;[root] meta.count&#45;boundary (EachMode fixup)</title>
<path fill="none" stroke="black" d="M1215.72,-287.7C1215.72,-279.98 1215.72,-270.71 1215.72,-262.11"/>
<polygon fill="black" stroke="black" points="1219.22,-262.1 1215.72,-252.1 1212.22,-262.1 1219.22,-262.1"/>
</g>
<!-- [root] root&#45;&gt;[root] module.aws_cloudfront_distribution.provider.aws (close) -->
<g id="edge21" class="edge">
<title>[root] root&#45;&gt;[root] module.aws_cloudfront_distribution.provider.aws (close)</title>
<path fill="none" stroke="black" d="M1170.44,-300.38C1071.3,-290.26 831.37,-265.78 674.9,-249.81"/>
<polygon fill="black" stroke="black" points="675.02,-246.31 664.71,-248.78 674.31,-253.27 675.02,-246.31"/>
</g>
<!-- [root] root&#45;&gt;[root] module.s3_bucket.provider.aws (close) -->
<g id="edge22" class="edge">
<title>[root] root&#45;&gt;[root] module.s3_bucket.provider.aws (close)</title>
<path fill="none" stroke="black" d="M1259.38,-298.79C1335.25,-287.99 1493.49,-265.48 1600.19,-250.3"/>
<polygon fill="black" stroke="black" points="1600.95,-253.73 1610.35,-248.85 1599.96,-246.8 1600.95,-253.73"/>
</g>
</g>
</svg>
