<?xml version="1.0" encoding="UTF-8" standalone="no"?>
<!DOCTYPE svg PUBLIC "-//W3C//DTD SVG 1.1//EN"
 "http://www.w3.org/Graphics/SVG/1.1/DTD/svg11.dtd">
<!-- Generated by graphviz version 2.44.1 (20200629.0846)
 -->
<!-- Pages: 1 -->
<svg width="2261pt" height="476pt"
 viewBox="0.00 0.00 2261.00 476.00" xmlns="http://www.w3.org/2000/svg" xmlns:xlink="http://www.w3.org/1999/xlink">
<g id="graph0" class="graph" transform="scale(1 1) rotate(0) translate(4 472)">
<polygon fill="white" stroke="transparent" points="-4,4 -4,-472 2257,-472 2257,4 -4,4"/>
<!-- [root] local.s3_origin_id -->
<g id="node1" class="node">
<title>[root] local.s3_origin_id</title>
<polygon fill="none" stroke="black" points="1092,-324 983,-324 983,-288 1098,-288 1098,-318 1092,-324"/>
<polyline fill="none" stroke="black" points="1092,-324 1092,-318 "/>
<polyline fill="none" stroke="black" points="1098,-318 1092,-318 "/>
<text text-anchor="middle" x="1040.5" y="-302.3" font-family="Times,serif" font-size="14.00">local.s3_origin_id</text>
</g>
<!-- [root] module.aws_cloudfront_distribution.aws_cloudfront_distribution.s3_distribution -->
<g id="node2" class="node">
<title>[root] module.aws_cloudfront_distribution.aws_cloudfront_distribution.s3_distribution</title>
<polygon fill="none" stroke="black" points="1606.5,-180 1150.5,-180 1150.5,-144 1606.5,-144 1606.5,-180"/>
<text text-anchor="middle" x="1378.5" y="-158.3" font-family="Times,serif" font-size="14.00">module.aws_cloudfront_distribution.aws_cloudfront_distribution.s3_distribution</text>
</g>
<!-- [root] module.aws_cloudfront_distribution.provider.aws -->
<g id="node4" class="node">
<title>[root] module.aws_cloudfront_distribution.provider.aws</title>
<polygon fill="none" stroke="black" points="1378.5,-108 1113.57,-90 1378.5,-72 1643.43,-90 1378.5,-108"/>
<text text-anchor="middle" x="1378.5" y="-86.3" font-family="Times,serif" font-size="14.00">module.aws_cloudfront_distribution.provider.aws</text>
</g>
<!-- [root] module.aws_cloudfront_distribution.aws_cloudfront_distribution.s3_distribution&#45;&gt;[root] module.aws_cloudfront_distribution.provider.aws -->
<g id="edge6" class="edge">
<title>[root] module.aws_cloudfront_distribution.aws_cloudfront_distribution.s3_distribution&#45;&gt;[root] module.aws_cloudfront_distribution.provider.aws</title>
<path fill="none" stroke="black" d="M1378.5,-143.7C1378.5,-135.98 1378.5,-126.71 1378.5,-118.11"/>
<polygon fill="black" stroke="black" points="1382,-118.1 1378.5,-108.1 1375,-118.1 1382,-118.1"/>
</g>
<!-- [root] module.aws_cloudfront_distribution.var.bucket_name -->
<g id="node5" class="node">
<title>[root] module.aws_cloudfront_distribution.var.bucket_name</title>
<polygon fill="none" stroke="black" points="903,-108 598,-108 598,-72 909,-72 909,-102 903,-108"/>
<polyline fill="none" stroke="black" points="903,-108 903,-102 "/>
<polyline fill="none" stroke="black" points="909,-102 903,-102 "/>
<text text-anchor="middle" x="753.5" y="-86.3" font-family="Times,serif" font-size="14.00">module.aws_cloudfront_distribution.var.bucket_name</text>
</g>
<!-- [root] module.aws_cloudfront_distribution.aws_cloudfront_distribution.s3_distribution&#45;&gt;[root] module.aws_cloudfront_distribution.var.bucket_name -->
<g id="edge7" class="edge">
<title>[root] module.aws_cloudfront_distribution.aws_cloudfront_distribution.s3_distribution&#45;&gt;[root] module.aws_cloudfront_distribution.var.bucket_name</title>
<path fill="none" stroke="black" d="M1226.41,-143.97C1132.27,-133.42 1011.49,-119.89 915.55,-109.15"/>
<polygon fill="black" stroke="black" points="915.79,-105.65 905.46,-108.02 915.01,-112.61 915.79,-105.65"/>
</g>
<!-- [root] module.aws_cloudfront_distribution.var.s3_origin_id -->
<g id="node6" class="node">
<title>[root] module.aws_cloudfront_distribution.var.s3_origin_id</title>
<polygon fill="none" stroke="black" points="2247,-108 1946,-108 1946,-72 2253,-72 2253,-102 2247,-108"/>
<polyline fill="none" stroke="black" points="2247,-108 2247,-102 "/>
<polyline fill="none" stroke="black" points="2253,-102 2247,-102 "/>
<text text-anchor="middle" x="2099.5" y="-86.3" font-family="Times,serif" font-size="14.00">module.aws_cloudfront_distribution.var.s3_origin_id</text>
</g>
<!-- [root] module.aws_cloudfront_distribution.aws_cloudfront_distribution.s3_distribution&#45;&gt;[root] module.aws_cloudfront_distribution.var.s3_origin_id -->
<g id="edge8" class="edge">
<title>[root] module.aws_cloudfront_distribution.aws_cloudfront_distribution.s3_distribution&#45;&gt;[root] module.aws_cloudfront_distribution.var.s3_origin_id</title>
<path fill="none" stroke="black" d="M1562,-144C1668.11,-134.07 1804.46,-121.12 1935.69,-108.08"/>
<polygon fill="black" stroke="black" points="1936.33,-111.53 1945.93,-107.06 1935.64,-104.56 1936.33,-111.53"/>
</g>
<!-- [root] module.aws_cloudfront_distribution.var.stack -->
<g id="node7" class="node">
<title>[root] module.aws_cloudfront_distribution.var.stack</title>
<polygon fill="none" stroke="black" points="1921.5,-108 1661.5,-108 1661.5,-72 1927.5,-72 1927.5,-102 1921.5,-108"/>
<polyline fill="none" stroke="black" points="1921.5,-108 1921.5,-102 "/>
<polyline fill="none" stroke="black" points="1927.5,-102 1921.5,-102 "/>
<text text-anchor="middle" x="1794.5" y="-86.3" font-family="Times,serif" font-size="14.00">module.aws_cloudfront_distribution.var.stack</text>
</g>
<!-- [root] module.aws_cloudfront_distribution.aws_cloudfront_distribution.s3_distribution&#45;&gt;[root] module.aws_cloudfront_distribution.var.stack -->
<g id="edge9" class="edge">
<title>[root] module.aws_cloudfront_distribution.aws_cloudfront_distribution.s3_distribution&#45;&gt;[root] module.aws_cloudfront_distribution.var.stack</title>
<path fill="none" stroke="black" d="M1479.73,-143.97C1541.26,-133.61 1619.88,-120.38 1683.16,-109.74"/>
<polygon fill="black" stroke="black" points="1683.89,-113.16 1693.17,-108.05 1682.73,-106.26 1683.89,-113.16"/>
</g>
<!-- [root] module.aws_cloudfront_distribution.output.domain_name -->
<g id="node3" class="node">
<title>[root] module.aws_cloudfront_distribution.output.domain_name</title>
<polygon fill="none" stroke="black" points="1344,-252 1015,-252 1015,-216 1350,-216 1350,-246 1344,-252"/>
<polyline fill="none" stroke="black" points="1344,-252 1344,-246 "/>
<polyline fill="none" stroke="black" points="1350,-246 1344,-246 "/>
<text text-anchor="middle" x="1182.5" y="-230.3" font-family="Times,serif" font-size="14.00">module.aws_cloudfront_distribution.output.domain_name</text>
</g>
<!-- [root] module.aws_cloudfront_distribution.output.domain_name&#45;&gt;[root] module.aws_cloudfront_distribution.aws_cloudfront_distribution.s3_distribution -->
<g id="edge10" class="edge">
<title>[root] module.aws_cloudfront_distribution.output.domain_name&#45;&gt;[root] module.aws_cloudfront_distribution.aws_cloudfront_distribution.s3_distribution</title>
<path fill="none" stroke="black" d="M1230.2,-215.97C1257.58,-206.19 1292.16,-193.84 1321.03,-183.52"/>
<polygon fill="black" stroke="black" points="1322.35,-186.77 1330.59,-180.11 1320,-180.18 1322.35,-186.77"/>
</g>
<!-- [root] var.bucket_name -->
<g id="node17" class="node">
<title>[root] var.bucket_name</title>
<polygon fill="none" stroke="black" points="479.5,-36 375.5,-36 375.5,0 485.5,0 485.5,-30 479.5,-36"/>
<polyline fill="none" stroke="black" points="479.5,-36 479.5,-30 "/>
<polyline fill="none" stroke="black" points="485.5,-30 479.5,-30 "/>
<text text-anchor="middle" x="430.5" y="-14.3" font-family="Times,serif" font-size="14.00">var.bucket_name</text>
</g>
<!-- [root] module.aws_cloudfront_distribution.var.bucket_name&#45;&gt;[root] var.bucket_name -->
<g id="edge12" class="edge">
<title>[root] module.aws_cloudfront_distribution.var.bucket_name&#45;&gt;[root] var.bucket_name</title>
<path fill="none" stroke="black" d="M674.9,-71.97C619.93,-60.05 547.38,-44.33 495.63,-33.12"/>
<polygon fill="black" stroke="black" points="496.09,-29.63 485.57,-30.94 494.61,-36.47 496.09,-29.63"/>
</g>
<!-- [root] var.stack -->
<g id="node18" class="node">
<title>[root] var.stack</title>
<polygon fill="none" stroke="black" points="1429,-36 1370,-36 1370,0 1435,0 1435,-30 1429,-36"/>
<polyline fill="none" stroke="black" points="1429,-36 1429,-30 "/>
<polyline fill="none" stroke="black" points="1435,-30 1429,-30 "/>
<text text-anchor="middle" x="1402.5" y="-14.3" font-family="Times,serif" font-size="14.00">var.stack</text>
</g>
<!-- [root] module.aws_cloudfront_distribution.var.stack&#45;&gt;[root] var.stack -->
<g id="edge13" class="edge">
<title>[root] module.aws_cloudfront_distribution.var.stack&#45;&gt;[root] var.stack</title>
<path fill="none" stroke="black" d="M1699.11,-71.97C1618.13,-57.5 1505.71,-37.43 1445.18,-26.62"/>
<polygon fill="black" stroke="black" points="1445.67,-23.15 1435.21,-24.84 1444.44,-30.04 1445.67,-23.15"/>
</g>
<!-- [root] module.s3_bucket.aws_s3_bucket.s3b -->
<g id="node8" class="node">
<title>[root] module.s3_bucket.aws_s3_bucket.s3b</title>
<polygon fill="none" stroke="black" points="594,-180 369,-180 369,-144 594,-144 594,-180"/>
<text text-anchor="middle" x="481.5" y="-158.3" font-family="Times,serif" font-size="14.00">module.s3_bucket.aws_s3_bucket.s3b</text>
</g>
<!-- [root] module.s3_bucket.provider.aws -->
<g id="node12" class="node">
<title>[root] module.s3_bucket.provider.aws</title>
<polygon fill="none" stroke="black" points="405.5,-108 230.72,-90 405.5,-72 580.28,-90 405.5,-108"/>
<text text-anchor="middle" x="405.5" y="-86.3" font-family="Times,serif" font-size="14.00">module.s3_bucket.provider.aws</text>
</g>
<!-- [root] module.s3_bucket.aws_s3_bucket.s3b&#45;&gt;[root] module.s3_bucket.provider.aws -->
<g id="edge14" class="edge">
<title>[root] module.s3_bucket.aws_s3_bucket.s3b&#45;&gt;[root] module.s3_bucket.provider.aws</title>
<path fill="none" stroke="black" d="M462.71,-143.7C452.74,-134.51 440.37,-123.11 429.68,-113.27"/>
<polygon fill="black" stroke="black" points="431.99,-110.64 422.26,-106.44 427.24,-115.79 431.99,-110.64"/>
</g>
<!-- [root] module.s3_bucket.var.bucket_name -->
<g id="node13" class="node">
<title>[root] module.s3_bucket.var.bucket_name</title>
<polygon fill="none" stroke="black" points="207,-108 0,-108 0,-72 213,-72 213,-102 207,-108"/>
<polyline fill="none" stroke="black" points="207,-108 207,-102 "/>
<polyline fill="none" stroke="black" points="213,-102 207,-102 "/>
<text text-anchor="middle" x="106.5" y="-86.3" font-family="Times,serif" font-size="14.00">module.s3_bucket.var.bucket_name</text>
</g>
<!-- [root] module.s3_bucket.aws_s3_bucket.s3b&#45;&gt;[root] module.s3_bucket.var.bucket_name -->
<g id="edge15" class="edge">
<title>[root] module.s3_bucket.aws_s3_bucket.s3b&#45;&gt;[root] module.s3_bucket.var.bucket_name</title>
<path fill="none" stroke="black" d="M390.24,-143.97C335.13,-133.68 264.78,-120.55 207.93,-109.93"/>
<polygon fill="black" stroke="black" points="208.31,-106.44 197.84,-108.05 207.03,-113.33 208.31,-106.44"/>
</g>
<!-- [root] module.s3_bucket.var.stack -->
<g id="node14" class="node">
<title>[root] module.s3_bucket.var.stack</title>
<polygon fill="none" stroke="black" points="1089.5,-108 927.5,-108 927.5,-72 1095.5,-72 1095.5,-102 1089.5,-108"/>
<polyline fill="none" stroke="black" points="1089.5,-108 1089.5,-102 "/>
<polyline fill="none" stroke="black" points="1095.5,-102 1089.5,-102 "/>
<text text-anchor="middle" x="1011.5" y="-86.3" font-family="Times,serif" font-size="14.00">module.s3_bucket.var.stack</text>
</g>
<!-- [root] module.s3_bucket.aws_s3_bucket.s3b&#45;&gt;[root] module.s3_bucket.var.stack -->
<g id="edge16" class="edge">
<title>[root] module.s3_bucket.aws_s3_bucket.s3b&#45;&gt;[root] module.s3_bucket.var.stack</title>
<path fill="none" stroke="black" d="M594.02,-149.23C679.93,-139.81 801.45,-125.54 917.28,-108.14"/>
<polygon fill="black" stroke="black" points="918.02,-111.57 927.39,-106.61 916.98,-104.64 918.02,-111.57"/>
</g>
<!-- [root] module.s3_bucket.output.bucket_arn -->
<g id="node9" class="node">
<title>[root] module.s3_bucket.output.bucket_arn</title>
<polygon fill="none" stroke="black" points="827.5,-252 615.5,-252 615.5,-216 833.5,-216 833.5,-246 827.5,-252"/>
<polyline fill="none" stroke="black" points="827.5,-252 827.5,-246 "/>
<polyline fill="none" stroke="black" points="833.5,-246 827.5,-246 "/>
<text text-anchor="middle" x="724.5" y="-230.3" font-family="Times,serif" font-size="14.00">module.s3_bucket.output.bucket_arn</text>
</g>
<!-- [root] module.s3_bucket.output.bucket_arn&#45;&gt;[root] module.s3_bucket.aws_s3_bucket.s3b -->
<g id="edge17" class="edge">
<title>[root] module.s3_bucket.output.bucket_arn&#45;&gt;[root] module.s3_bucket.aws_s3_bucket.s3b</title>
<path fill="none" stroke="black" d="M665.37,-215.97C630.82,-206.01 587.05,-193.41 550.88,-182.99"/>
<polygon fill="black" stroke="black" points="551.48,-179.52 540.9,-180.11 549.54,-186.24 551.48,-179.52"/>
</g>
<!-- [root] module.s3_bucket.output.bucket_id -->
<g id="node10" class="node">
<title>[root] module.s3_bucket.output.bucket_id</title>
<polygon fill="none" stroke="black" points="958.5,-324 752.5,-324 752.5,-288 964.5,-288 964.5,-318 958.5,-324"/>
<polyline fill="none" stroke="black" points="958.5,-324 958.5,-318 "/>
<polyline fill="none" stroke="black" points="964.5,-318 958.5,-318 "/>
<text text-anchor="middle" x="858.5" y="-302.3" font-family="Times,serif" font-size="14.00">module.s3_bucket.output.bucket_id</text>
</g>
<!-- [root] module.s3_bucket.output.bucket_id&#45;&gt;[root] module.s3_bucket.aws_s3_bucket.s3b -->
<g id="edge18" class="edge">
<title>[root] module.s3_bucket.output.bucket_id&#45;&gt;[root] module.s3_bucket.aws_s3_bucket.s3b</title>
<path fill="none" stroke="black" d="M860.79,-287.9C862.44,-267.72 861.67,-234.57 842.5,-216 809.11,-183.67 695.38,-170.99 604.38,-166.05"/>
<polygon fill="black" stroke="black" points="604.42,-162.55 594.25,-165.53 604.06,-169.54 604.42,-162.55"/>
</g>
<!-- [root] module.s3_bucket.output.bucket_name -->
<g id="node11" class="node">
<title>[root] module.s3_bucket.output.bucket_name</title>
<polygon fill="none" stroke="black" points="591,-252 366,-252 366,-216 597,-216 597,-246 591,-252"/>
<polyline fill="none" stroke="black" points="591,-252 591,-246 "/>
<polyline fill="none" stroke="black" points="597,-246 591,-246 "/>
<text text-anchor="middle" x="481.5" y="-230.3" font-family="Times,serif" font-size="14.00">module.s3_bucket.output.bucket_name</text>
</g>
<!-- [root] module.s3_bucket.output.bucket_name&#45;&gt;[root] module.s3_bucket.aws_s3_bucket.s3b -->
<g id="edge19" class="edge">
<title>[root] module.s3_bucket.output.bucket_name&#45;&gt;[root] module.s3_bucket.aws_s3_bucket.s3b</title>
<path fill="none" stroke="black" d="M481.5,-215.7C481.5,-207.98 481.5,-198.71 481.5,-190.11"/>
<polygon fill="black" stroke="black" points="485,-190.1 481.5,-180.1 478,-190.1 485,-190.1"/>
</g>
<!-- [root] module.s3_bucket.var.bucket_name&#45;&gt;[root] var.bucket_name -->
<g id="edge21" class="edge">
<title>[root] module.s3_bucket.var.bucket_name&#45;&gt;[root] var.bucket_name</title>
<path fill="none" stroke="black" d="M185.35,-71.97C240.49,-60.05 313.26,-44.33 365.16,-33.12"/>
<polygon fill="black" stroke="black" points="366.22,-36.47 375.26,-30.94 364.74,-29.63 366.22,-36.47"/>
</g>
<!-- [root] module.s3_bucket.var.stack&#45;&gt;[root] var.stack -->
<g id="edge22" class="edge">
<title>[root] module.s3_bucket.var.stack&#45;&gt;[root] var.stack</title>
<path fill="none" stroke="black" d="M1095.65,-73.6C1098.63,-73.06 1101.59,-72.52 1104.5,-72 1195.48,-55.59 1302.16,-36.71 1359.99,-26.5"/>
<polygon fill="black" stroke="black" points="1360.62,-29.94 1369.86,-24.75 1359.4,-23.04 1360.62,-29.94"/>
</g>
<!-- [root] output.bucket_name -->
<g id="node15" class="node">
<title>[root] output.bucket_name</title>
<polygon fill="none" stroke="black" points="615.5,-324 493.5,-324 493.5,-288 621.5,-288 621.5,-318 615.5,-324"/>
<polyline fill="none" stroke="black" points="615.5,-324 615.5,-318 "/>
<polyline fill="none" stroke="black" points="621.5,-318 615.5,-318 "/>
<text text-anchor="middle" x="557.5" y="-302.3" font-family="Times,serif" font-size="14.00">output.bucket_name</text>
</g>
<!-- [root] output.bucket_name&#45;&gt;[root] module.s3_bucket.output.bucket_name -->
<g id="edge23" class="edge">
<title>[root] output.bucket_name&#45;&gt;[root] module.s3_bucket.output.bucket_name</title>
<path fill="none" stroke="black" d="M538.71,-287.7C529.33,-279.05 517.82,-268.45 507.59,-259.03"/>
<polygon fill="black" stroke="black" points="509.8,-256.3 500.07,-252.1 505.05,-261.45 509.8,-256.3"/>
</g>
<!-- [root] output.domain_name -->
<g id="node16" class="node">
<title>[root] output.domain_name</title>
<polygon fill="none" stroke="black" points="1243,-324 1116,-324 1116,-288 1249,-288 1249,-318 1243,-324"/>
<polyline fill="none" stroke="black" points="1243,-324 1243,-318 "/>
<polyline fill="none" stroke="black" points="1249,-318 1243,-318 "/>
<text text-anchor="middle" x="1182.5" y="-302.3" font-family="Times,serif" font-size="14.00">output.domain_name</text>
</g>
<!-- [root] output.domain_name&#45;&gt;[root] module.aws_cloudfront_distribution.output.domain_name -->
<g id="edge24" class="edge">
<title>[root] output.domain_name&#45;&gt;[root] module.aws_cloudfront_distribution.output.domain_name</title>
<path fill="none" stroke="black" d="M1182.5,-287.7C1182.5,-279.98 1182.5,-270.71 1182.5,-262.11"/>
<polygon fill="black" stroke="black" points="1186,-262.1 1182.5,-252.1 1179,-262.1 1186,-262.1"/>
</g>
<!-- [root] meta.count&#45;boundary (EachMode fixup) -->
<g id="node19" class="node">
<title>[root] meta.count&#45;boundary (EachMode fixup)</title>
<ellipse fill="none" stroke="black" cx="858.5" cy="-378" rx="176.27" ry="18"/>
<text text-anchor="middle" x="858.5" y="-374.3" font-family="Times,serif" font-size="14.00">[root] meta.count&#45;boundary (EachMode fixup)</text>
</g>
<!-- [root] meta.count&#45;boundary (EachMode fixup)&#45;&gt;[root] local.s3_origin_id -->
<g id="edge1" class="edge">
<title>[root] meta.count&#45;boundary (EachMode fixup)&#45;&gt;[root] local.s3_origin_id</title>
<path fill="none" stroke="black" d="M901.63,-360.41C927.11,-350.61 959.6,-338.12 986.74,-327.68"/>
<polygon fill="black" stroke="black" points="988.02,-330.94 996.1,-324.08 985.51,-324.4 988.02,-330.94"/>
</g>
<!-- [root] meta.count&#45;boundary (EachMode fixup)&#45;&gt;[root] module.s3_bucket.output.bucket_arn -->
<g id="edge2" class="edge">
<title>[root] meta.count&#45;boundary (EachMode fixup)&#45;&gt;[root] module.s3_bucket.output.bucket_arn</title>
<path fill="none" stroke="black" d="M797.73,-361.07C777.78,-353.01 757.23,-341.17 743.5,-324 729.66,-306.69 725.28,-281.64 724.15,-262.52"/>
<polygon fill="black" stroke="black" points="727.64,-262.2 723.82,-252.32 720.65,-262.43 727.64,-262.2"/>
</g>
<!-- [root] meta.count&#45;boundary (EachMode fixup)&#45;&gt;[root] module.s3_bucket.output.bucket_id -->
<g id="edge3" class="edge">
<title>[root] meta.count&#45;boundary (EachMode fixup)&#45;&gt;[root] module.s3_bucket.output.bucket_id</title>
<path fill="none" stroke="black" d="M858.5,-359.7C858.5,-351.98 858.5,-342.71 858.5,-334.11"/>
<polygon fill="black" stroke="black" points="862,-334.1 858.5,-324.1 855,-334.1 862,-334.1"/>
</g>
<!-- [root] meta.count&#45;boundary (EachMode fixup)&#45;&gt;[root] output.bucket_name -->
<g id="edge4" class="edge">
<title>[root] meta.count&#45;boundary (EachMode fixup)&#45;&gt;[root] output.bucket_name</title>
<path fill="none" stroke="black" d="M790.95,-361.29C743.6,-350.28 680.32,-335.56 631.59,-324.23"/>
<polygon fill="black" stroke="black" points="632.26,-320.79 621.73,-321.94 630.68,-327.61 632.26,-320.79"/>
</g>
<!-- [root] meta.count&#45;boundary (EachMode fixup)&#45;&gt;[root] output.domain_name -->
<g id="edge5" class="edge">
<title>[root] meta.count&#45;boundary (EachMode fixup)&#45;&gt;[root] output.domain_name</title>
<path fill="none" stroke="black" d="M932.1,-361.6C979.28,-351.67 1042.09,-338.33 1106,-324.32"/>
<polygon fill="black" stroke="black" points="1106.84,-327.72 1115.85,-322.15 1105.34,-320.88 1106.84,-327.72"/>
</g>
<!-- [root] module.aws_cloudfront_distribution.provider.aws (close) -->
<g id="node20" class="node">
<title>[root] module.aws_cloudfront_distribution.provider.aws (close)</title>
<ellipse fill="none" stroke="black" cx="1333.5" cy="-378" rx="235.86" ry="18"/>
<text text-anchor="middle" x="1333.5" y="-374.3" font-family="Times,serif" font-size="14.00">[root] module.aws_cloudfront_distribution.provider.aws (close)</text>
</g>
<!-- [root] module.aws_cloudfront_distribution.provider.aws (close)&#45;&gt;[root] module.aws_cloudfront_distribution.aws_cloudfront_distribution.s3_distribution -->
<g id="edge11" class="edge">
<title>[root] module.aws_cloudfront_distribution.provider.aws (close)&#45;&gt;[root] module.aws_cloudfront_distribution.aws_cloudfront_distribution.s3_distribution</title>
<path fill="none" stroke="black" d="M1337.11,-359.85C1344.91,-322.75 1363.4,-234.81 1372.8,-190.1"/>
<polygon fill="black" stroke="black" points="1376.24,-190.74 1374.88,-180.23 1369.39,-189.3 1376.24,-190.74"/>
</g>
<!-- [root] module.s3_bucket.provider.aws (close) -->
<g id="node21" class="node">
<title>[root] module.s3_bucket.provider.aws (close)</title>
<ellipse fill="none" stroke="black" cx="175.5" cy="-234" rx="172.47" ry="18"/>
<text text-anchor="middle" x="175.5" y="-230.3" font-family="Times,serif" font-size="14.00">[root] module.s3_bucket.provider.aws (close)</text>
</g>
<!-- [root] module.s3_bucket.provider.aws (close)&#45;&gt;[root] module.s3_bucket.aws_s3_bucket.s3b -->
<g id="edge20" class="edge">
<title>[root] module.s3_bucket.provider.aws (close)&#45;&gt;[root] module.s3_bucket.aws_s3_bucket.s3b</title>
<path fill="none" stroke="black" d="M243.79,-217.38C289.11,-207.01 348.9,-193.33 397.18,-182.29"/>
<polygon fill="black" stroke="black" points="398.02,-185.69 406.99,-180.04 396.46,-178.86 398.02,-185.69"/>
</g>
<!-- [root] root -->
<g id="node22" class="node">
<title>[root] root</title>
<ellipse fill="none" stroke="black" cx="858.5" cy="-450" rx="47.39" ry="18"/>
<text text-anchor="middle" x="858.5" y="-446.3" font-family="Times,serif" font-size="14.00">[root] root</text>
</g>
<!-- [root] root&#45;&gt;[root] meta.count&#45;boundary (EachMode fixup) -->
<g id="edge25" class="edge">
<title>[root] root&#45;&gt;[root] meta.count&#45;boundary (EachMode fixup)</title>
<path fill="none" stroke="black" d="M858.5,-431.7C858.5,-423.98 858.5,-414.71 858.5,-406.11"/>
<polygon fill="black" stroke="black" points="862,-406.1 858.5,-396.1 855,-406.1 862,-406.1"/>
</g>
<!-- [root] root&#45;&gt;[root] module.aws_cloudfront_distribution.provider.aws (close) -->
<g id="edge26" class="edge">
<title>[root] root&#45;&gt;[root] module.aws_cloudfront_distribution.provider.aws (close)</title>
<path fill="none" stroke="black" d="M901.91,-442.6C973.39,-432.07 1118.1,-410.74 1220.2,-395.7"/>
<polygon fill="black" stroke="black" points="1220.87,-399.14 1230.25,-394.22 1219.85,-392.21 1220.87,-399.14"/>
</g>
<!-- [root] root&#45;&gt;[root] module.s3_bucket.provider.aws (close) -->
<g id="edge27" class="edge">
<title>[root] root&#45;&gt;[root] module.s3_bucket.provider.aws (close)</title>
<path fill="none" stroke="black" d="M821.19,-438.71C783.74,-428.29 724.47,-411.54 673.5,-396 513.74,-347.31 326.68,-285.54 233.87,-254.57"/>
<polygon fill="black" stroke="black" points="234.7,-251.16 224.1,-251.31 232.48,-257.8 234.7,-251.16"/>
</g>
</g>
</svg>
